<svg version="1.1" id="Layer_1" xmlns="http://www.w3.org/2000/svg" xmlns:xlink="http://www.w3.org/1999/xlink" x="0px" y="0px"
	 width="100%" viewBox="0 0 512 512" enable-background="new 0 0 512 512" xml:space="preserve">
<path fill="#000000" opacity="1.000000" stroke="none" 
	d="
M513.000000,16.000000 
	C513.000000,181.591995 513.000000,347.183990 513.000000,513.000000 
	C362.309326,513.000000 211.618546,513.000000 60.135643,512.711792 
	C60.134033,511.944366 60.877083,511.349152 61.722160,511.003113 
	C74.869682,505.619965 84.267921,496.661560 89.453362,483.196014 
	C93.751358,472.034973 91.536087,461.066528 89.511215,450.019104 
	C87.060509,436.648438 84.473068,423.302856 82.013481,409.933777 
	C79.346802,395.439087 76.729607,380.935059 74.153999,366.423920 
	C73.314751,361.695496 72.673927,356.931854 72.014381,352.651733 
	C84.086563,347.194092 95.541451,342.015533 107.353073,336.808289 
	C123.426926,329.541992 139.144058,322.304352 155.304810,314.862427 
	C158.767059,334.306396 162.075195,352.884796 165.451157,371.844177 
	C163.821518,371.920471 163.016632,372.068298 162.239395,371.978027 
	C150.981277,370.670563 141.254242,373.963745 131.901093,380.377594 
	C108.419800,396.479797 107.754662,435.615723 131.145096,452.961365 
	C152.755478,468.986908 186.503143,463.876617 199.709534,437.716125 
	C204.958206,427.319061 205.398102,416.549530 203.128662,405.198792 
	C199.982086,389.460968 197.738968,373.544800 194.903458,357.741882 
	C192.071854,341.960724 188.956284,326.230713 186.022339,310.467651 
	C183.517242,297.008667 181.093201,283.534546 178.621841,270.004486 
	C166.894638,275.241119 155.490875,280.220245 144.184845,285.412201 
	C131.732086,291.130737 119.369156,297.044922 106.592850,302.934784 
	C102.542542,304.655243 98.862877,306.306885 95.191017,307.975739 
	C76.933250,316.273621 58.703167,324.633392 40.394375,332.817078 
	C37.542782,334.091675 36.811523,335.040131 37.595032,338.518646 
	C40.157677,349.895782 41.949329,361.447845 43.989845,372.941071 
	C46.931118,389.507812 49.830627,406.082001 52.829678,423.117188 
	C47.716167,423.117188 42.536289,422.205994 37.808109,423.281189 
	C20.922380,427.120972 8.617651,436.665955 2.935564,453.634308 
	C2.733435,454.237885 1.664794,454.551331 1.000000,455.000000 
	C1.000000,303.735138 1.000000,152.470291 1.000000,1.000000 
	C164.690689,1.000000 328.381470,1.000000 492.850037,1.365585 
	C488.526764,2.482959 483.444458,3.416541 478.320343,3.944907 
	C470.167908,4.785536 461.974976,5.232979 453.822113,6.070114 
	C442.131622,7.270490 430.470886,8.761157 418.779999,9.956800 
	C410.627472,10.790564 402.431946,11.204397 394.279816,12.041065 
	C378.514374,13.659098 362.766052,15.443261 346.581482,17.087959 
	C329.588806,18.808895 313.025238,20.600431 296.193329,22.420992 
	C290.204712,67.552277 284.201447,112.794044 278.164032,158.293152 
	C273.909088,156.112823 270.603760,154.443420 267.320068,152.732498 
	C246.419739,141.842773 218.849258,146.414627 202.123657,161.535110 
	C184.249374,177.694031 177.814285,198.249100 183.182312,221.681183 
	C187.253006,239.450287 197.860596,252.779785 214.425323,261.093811 
	C227.729095,267.771149 241.422714,269.702393 256.017456,266.064209 
	C275.153931,261.293854 288.957764,250.085892 296.835693,232.194778 
	C299.646149,225.812103 300.814850,218.601349 302.031189,211.645844 
	C303.993103,200.426941 305.451691,189.116882 306.974426,177.825317 
	C308.152802,169.087372 309.023407,160.308182 310.176300,151.566513 
	C311.710175,139.936295 313.435211,128.331329 314.983398,116.702911 
	C316.146606,107.966293 317.097168,99.201393 318.256866,90.464279 
	C319.779053,78.996231 321.703918,67.572098 322.852509,56.068855 
	C323.292145,51.665878 324.534637,50.036682 329.040802,49.875301 
	C335.045685,49.660240 341.018860,48.560020 347.450684,47.915184 
	C352.315674,47.665302 356.739136,47.381649 361.154785,47.006050 
	C368.834869,46.352776 376.519592,45.733429 384.185242,44.935524 
	C396.050446,43.700504 407.893646,42.253052 419.760773,41.038383 
	C427.920288,40.203213 436.116760,39.727184 444.274750,38.879597 
	C455.389008,37.724865 466.482422,36.369083 477.610840,35.096527 
	C472.966370,70.198357 468.381256,104.851570 463.755249,139.813950 
	C462.582642,139.173004 461.569519,138.688583 460.626495,138.093140 
	C450.824097,131.903915 440.155518,128.172089 428.559143,128.074020 
	C417.373657,127.979416 406.888153,130.961945 396.980255,136.403091 
	C375.900848,147.979401 363.993866,174.357269 367.768097,198.280167 
	C373.516785,234.717987 411.511017,258.109497 446.673767,245.936829 
	C470.831757,237.573822 484.080994,219.850067 487.935944,194.978867 
	C489.735443,183.369171 490.573547,171.613739 492.095184,159.956711 
	C493.569580,148.661926 495.484070,137.424820 496.979797,126.132507 
	C498.481049,114.798500 499.557617,103.407875 501.086670,92.078003 
	C502.914886,78.531570 505.149658,65.039978 506.975861,51.493298 
	C508.502472,40.168911 509.669312,28.796223 511.109589,17.459421 
	C511.180420,16.901890 512.344849,16.483292 513.000000,16.000000 
M77.970497,242.010849 
	C90.891327,240.838852 100.438309,233.837540 107.957489,223.929489 
	C116.515594,212.652435 117.716576,199.718048 115.002480,186.232819 
	C110.788643,165.296066 106.439667,144.386520 102.219017,123.451118 
	C101.276047,118.773766 100.627373,114.037094 99.653534,108.188591 
	C113.555206,117.402367 126.376228,125.899902 139.133514,134.355194 
	C145.106491,125.380249 150.640091,117.065491 156.420517,108.379868 
	C151.610092,105.129784 147.081009,102.005188 142.487991,98.977608 
	C120.732826,84.637230 98.960197,70.323334 76.848778,55.354694 
	C69.440651,50.534279 62.032532,45.713863 53.770443,40.337780 
	C55.152882,47.204205 56.345711,53.150581 57.547722,59.095097 
	C61.363392,77.965385 65.124039,96.847054 69.021263,115.700493 
	C71.525879,127.816948 74.233368,139.891464 76.955559,152.467636 
	C76.955559,152.467636 76.896744,152.958405 76.066879,152.972809 
	C71.921600,152.976074 67.748672,152.668732 63.635696,153.034866 
	C42.754570,154.893784 26.207195,176.353439 25.725988,194.833084 
	C25.241375,213.443497 34.600208,231.798157 52.713589,239.231323 
	C60.568314,242.454651 68.588196,244.688004 77.970497,242.010849 
M331.158386,364.016998 
	C327.753845,364.357086 324.277679,364.367859 320.956329,365.090393 
	C298.670288,369.938568 282.085449,390.326782 284.780182,415.643005 
	C287.095093,437.390625 308.751617,458.136810 332.926514,454.992401 
	C349.485840,455.005096 367.116516,441.635406 374.013947,424.399628 
	C377.494293,415.702759 381.656403,407.270782 385.692902,398.806183 
	C392.589417,384.344116 399.629669,369.950592 406.572510,355.604889 
	C411.846375,370.420715 417.155975,385.337006 422.524231,400.417969 
	C432.811981,396.746490 442.348694,393.343048 451.919067,389.927582 
	C438.245819,351.330658 424.733673,313.188568 410.807861,273.878723 
	C393.988464,309.074493 377.819763,342.908691 361.748077,376.539856 
	C357.604095,373.933075 353.882568,370.795441 349.591827,369.090454 
	C343.970001,366.856598 337.898834,365.753632 331.158386,364.016998 
z"/>
<path fill="#8096FF" opacity="1.000000" stroke="none" 
	d="
M513.000000,15.527336 
	C512.344849,16.483292 511.180420,16.901890 511.109589,17.459421 
	C509.669312,28.796223 508.502472,40.168911 506.975861,51.493298 
	C505.149658,65.039978 502.914886,78.531570 501.086670,92.078003 
	C499.557617,103.407875 498.481049,114.798500 496.979797,126.132507 
	C495.484070,137.424820 493.569580,148.661926 492.095184,159.956711 
	C490.573547,171.613739 489.735443,183.369171 487.935944,194.978867 
	C484.080994,219.850067 470.831757,237.573822 446.673767,245.936829 
	C411.511017,258.109497 373.516785,234.717987 367.768097,198.280167 
	C363.993866,174.357269 375.900848,147.979401 396.980255,136.403091 
	C406.888153,130.961945 417.373657,127.979416 428.559143,128.074020 
	C440.155518,128.172089 450.824097,131.903915 460.626495,138.093140 
	C461.569519,138.688583 462.582642,139.173004 463.755249,139.813950 
	C468.381256,104.851570 472.966370,70.198357 477.610840,35.096527 
	C466.482422,36.369083 455.389008,37.724865 444.274750,38.879597 
	C436.116760,39.727184 427.920288,40.203213 419.760773,41.038383 
	C407.893646,42.253052 396.050446,43.700504 384.185242,44.935524 
	C376.519592,45.733429 368.834869,46.352776 361.154785,47.006050 
	C356.739136,47.381649 352.315674,47.665302 347.448975,47.456757 
	C347.005035,37.001633 347.007812,27.080095 347.010620,17.158560 
	C362.766052,15.443261 378.514374,13.659098 394.279816,12.041065 
	C402.431946,11.204397 410.627472,10.790564 418.779999,9.956800 
	C430.470886,8.761157 442.131622,7.270490 453.822113,6.070114 
	C461.974976,5.232979 470.167908,4.785536 478.320343,3.944907 
	C483.444458,3.416541 488.526764,2.482959 493.313904,1.365585 
	C499.580597,1.000000 506.161224,1.000000 513.000000,1.000000 
	C513.000000,5.681771 513.000000,10.368222 513.000000,15.527336 
z"/>
<path fill="#99BBFF" opacity="1.000000" stroke="none" 
	d="
M106.996338,336.836945 
	C95.541451,342.015533 84.086563,347.194092 72.014381,352.651733 
	C72.673927,356.931854 73.314751,361.695496 74.153999,366.423920 
	C76.729607,380.935059 79.346802,395.439087 82.013481,409.933777 
	C84.473068,423.302856 87.060509,436.648438 89.511215,450.019104 
	C91.536087,461.066528 93.751358,472.034973 89.453362,483.196014 
	C84.267921,496.661560 74.869682,505.619965 61.722160,511.003113 
	C60.877083,511.349152 60.134033,511.944366 59.671757,512.711792 
	C51.312435,513.000000 42.624874,513.000000 33.796970,512.709229 
	C33.340122,512.038574 33.095249,511.442017 32.696739,511.310333 
	C17.879332,506.413757 7.464151,497.106537 2.876825,481.842072 
	C2.747625,481.412170 1.647425,481.274139 1.000000,481.000000 
	C1.000000,472.645782 1.000000,464.291534 1.000000,455.468658 
	C1.664794,454.551331 2.733435,454.237885 2.935564,453.634308 
	C8.617651,436.665955 20.922380,427.120972 37.808109,423.281189 
	C42.536289,422.205994 47.716167,423.117188 52.829678,423.117188 
	C49.830627,406.082001 46.931118,389.507812 43.989845,372.941071 
	C41.949329,361.447845 40.157677,349.895782 37.595032,338.518646 
	C36.811523,335.040131 37.542782,334.091675 40.394375,332.817078 
	C58.703167,324.633392 76.933250,316.273621 95.191017,307.975739 
	C98.862877,306.306885 102.542542,304.655243 106.600739,303.411530 
	C106.987350,314.830566 106.991844,325.833740 106.996338,336.836945 
z"/>
<path fill="#000000" opacity="1.000000" stroke="none" 
	d="
M1.000000,481.468658 
	C1.647425,481.274139 2.747625,481.412170 2.876825,481.842072 
	C7.464151,497.106537 17.879332,506.413757 32.696739,511.310333 
	C33.095249,511.442017 33.340122,512.038574 33.328316,512.709229 
	C22.406794,513.000000 11.813587,513.000000 1.000000,513.000000 
	C1.000000,502.646820 1.000000,492.292053 1.000000,481.468658 
z"/>
<path fill="#99BBFF" opacity="1.000000" stroke="none" 
	d="
M346.581482,17.087959 
	C347.007812,27.080095 347.005035,37.001633 347.003967,47.381596 
	C341.018860,48.560020 335.045685,49.660240 329.040802,49.875301 
	C324.534637,50.036682 323.292145,51.665878 322.852509,56.068855 
	C321.703918,67.572098 319.779053,78.996231 318.256866,90.464279 
	C317.097168,99.201393 316.146606,107.966293 314.983398,116.702911 
	C313.435211,128.331329 311.710175,139.936295 310.176300,151.566513 
	C309.023407,160.308182 308.152802,169.087372 306.974426,177.825317 
	C305.451691,189.116882 303.993103,200.426941 302.031189,211.645844 
	C300.814850,218.601349 299.646149,225.812103 296.835693,232.194778 
	C288.957764,250.085892 275.153931,261.293854 256.017456,266.064209 
	C241.422714,269.702393 227.729095,267.771149 214.425323,261.093811 
	C197.860596,252.779785 187.253006,239.450287 183.182312,221.681183 
	C177.814285,198.249100 184.249374,177.694031 202.123657,161.535110 
	C218.849258,146.414627 246.419739,141.842773 267.320068,152.732498 
	C270.603760,154.443420 273.909088,156.112823 278.164032,158.293152 
	C284.201447,112.794044 290.204712,67.552277 296.193329,22.420992 
	C313.025238,20.600431 329.588806,18.808895 346.581482,17.087959 
z"/>
<path fill="#8096FF" opacity="1.000000" stroke="none" 
	d="
M107.353073,336.808289 
	C106.991844,325.833740 106.987350,314.830566 106.974976,303.350616 
	C119.369156,297.044922 131.732086,291.130737 144.184845,285.412201 
	C155.490875,280.220245 166.894638,275.241119 178.621841,270.004486 
	C181.093201,283.534546 183.517242,297.008667 186.022339,310.467651 
	C188.956284,326.230713 192.071854,341.960724 194.903458,357.741882 
	C197.738968,373.544800 199.982086,389.460968 203.128662,405.198792 
	C205.398102,416.549530 204.958206,427.319061 199.709534,437.716125 
	C186.503143,463.876617 152.755478,468.986908 131.145096,452.961365 
	C107.754662,435.615723 108.419800,396.479797 131.901093,380.377594 
	C141.254242,373.963745 150.981277,370.670563 162.239395,371.978027 
	C163.016632,372.068298 163.821518,371.920471 165.451157,371.844177 
	C162.075195,352.884796 158.767059,334.306396 155.304810,314.862427 
	C139.144058,322.304352 123.426926,329.541992 107.353073,336.808289 
z"/>
<path fill="#FFBC34" opacity="1.000000" stroke="none" 
	d="
M332.020935,364.164185 
	C337.898834,365.753632 343.970001,366.856598 349.591827,369.090454 
	C353.882568,370.795441 357.604095,373.933075 361.748077,376.539856 
	C377.819763,342.908691 393.988464,309.074493 410.807861,273.878723 
	C424.733673,313.188568 438.245819,351.330658 451.919067,389.927582 
	C442.348694,393.343048 432.811981,396.746490 422.524231,400.417969 
	C417.155975,385.337006 411.846375,370.420715 406.572510,355.604889 
	C399.629669,369.950592 392.589417,384.344116 385.692902,398.806183 
	C381.656403,407.270782 377.494293,415.702759 374.013947,424.399628 
	C367.116516,441.635406 349.485840,455.005096 332.480255,454.458618 
	C332.029663,424.004608 332.025299,394.084381 332.020935,364.164185 
z"/>
<path fill="#FFBB34" opacity="1.000000" stroke="none" 
	d="
M77.193794,56.000004 
	C98.960197,70.323334 120.732826,84.637230 142.487991,98.977608 
	C147.081009,102.005188 151.610092,105.129784 156.420517,108.379868 
	C150.640091,117.065491 145.106491,125.380249 139.133514,134.355194 
	C126.376228,125.899902 113.555206,117.402367 99.653534,108.188591 
	C100.627373,114.037094 101.276047,118.773766 102.219017,123.451118 
	C106.439667,144.386520 110.788643,165.296066 115.002480,186.232819 
	C117.716576,199.718048 116.515594,212.652435 107.957489,223.929489 
	C100.438309,233.837540 90.891327,240.838852 77.513542,241.551575 
	C77.003304,211.714325 76.950020,182.336365 76.896744,152.958405 
	C76.896744,152.958405 76.955559,152.467636 76.939430,151.763306 
	C76.947136,146.413773 76.981148,141.768600 76.993126,137.123367 
	C77.062881,110.082253 77.127464,83.041122 77.193794,56.000004 
z"/>
<path fill="#FFD480" opacity="1.000000" stroke="none" 
	d="
M76.481812,152.965607 
	C76.950020,182.336365 77.003304,211.714325 77.098541,241.557449 
	C68.588196,244.688004 60.568314,242.454651 52.713589,239.231323 
	C34.600208,231.798157 25.241375,213.443497 25.725988,194.833084 
	C26.207195,176.353439 42.754570,154.893784 63.635696,153.034866 
	C67.748672,152.668732 71.921600,152.976074 76.481812,152.965607 
z"/>
<path fill="#FFD480" opacity="1.000000" stroke="none" 
	d="
M331.589661,364.090576 
	C332.025299,394.084381 332.029663,424.004608 332.058411,454.382751 
	C308.751617,458.136810 287.095093,437.390625 284.780182,415.643005 
	C282.085449,390.326782 298.670288,369.938568 320.956329,365.090393 
	C324.277679,364.367859 327.753845,364.357086 331.589661,364.090576 
z"/>
<path fill="#FFD480" opacity="1.000000" stroke="none" 
	d="
M77.021286,55.677349 
	C77.127464,83.041122 77.062881,110.082253 76.993126,137.123367 
	C76.981148,141.768600 76.947136,146.413773 76.886612,151.521881 
	C74.233368,139.891464 71.525879,127.816948 69.021263,115.700493 
	C65.124039,96.847054 61.363392,77.965385 57.547722,59.095097 
	C56.345711,53.150581 55.152882,47.204205 53.770443,40.337780 
	C62.032532,45.713863 69.440651,50.534279 77.021286,55.677349 
z"/>
</svg>